# xmcd
#
# Track frame offsets:
#	150
#	18512
#	40778
#	58494
#	77756
#	95524
#	113033
#	133011
#	148229
#	168042
#	186535
#	203619
#	222194
#	243369
#	258534
#	273288
#	291763
#	305356
#	318506
#	334730
#
# Disc length: 4660 seconds
#
# Revision: 1
# Processed by: cddbd v1.5.2PL0 Copyright (c) Steve Scherf et al.
# Submitted via: audiograbber 1.83.01
#
DISCID=2d123214
DTITLE=Taylor Swift - Fearless [Japan Digital Version]
DYEAR=2009
DGENRE=Country
TTITLE0=Fearless
TTITLE1=Fifteen
TTITLE2=Love Story
TTITLE3=Hey Stephen
TTITLE4=White Horse
TTITLE5=You Belong With Me
TTITLE6=Breathe (feat. Colbie Caillat)
TTITLE7=Tell Me Why
TTITLE8=You're Not Sorry
TTITLE9=The Way I Loved You
TTITLE10=Forever and Always
TTITLE11=The Best Day
TTITLE12=Change
TTITLE13=Our Song
TTITLE14=Teardrops On My Guitar
TTITLE15=Should've Said No
TTITLE16=Beautiful Eyes
TTITLE17=Picture To Burn (Radio Edit)
TTITLE18=I'm Only Me When I'm With You
TTITLE19=I Heart?
EXTD=
EXTT0=
EXTT1=
EXTT2=
EXTT3=
EXTT4=
EXTT5=
EXTT6=
EXTT7=
EXTT8=
EXTT9=
EXTT10=
EXTT11=
EXTT12=
EXTT13=
EXTT14=
EXTT15=
EXTT16=
EXTT17=
EXTT18=
EXTT19=
PLAYORDER=
